<?xml version="1.0" encoding="iso-8859-1"?>
<!-- Generator: Adobe Illustrator 19.0.0, SVG Export Plug-In . SVG Version: 6.00 Build 0)  -->
<svg version="1.1" id="Layer_1" xmlns="http://www.w3.org/2000/svg" xmlns:xlink="http://www.w3.org/1999/xlink" x="0px" y="0px"
	 viewBox="0 0 511.999 511.999" style="enable-background:new 0 0 511.999 511.999;" xml:space="preserve">
<g>
	<g>
		<path d="M503.061,363.987h-17.22V118.562c0-20.332-16.54-36.872-36.872-36.872H63.032c-20.332,0-36.873,16.54-36.873,36.872
			v245.425H8.939c-4.938,0-8.939,4.002-8.939,8.939v21.483c0,19.795,16.105,35.899,35.899,35.899h440.201
			c19.794,0,35.898-16.104,35.898-35.899v-21.483C512,367.99,507.998,363.987,503.061,363.987z M44.038,118.562
			c0-10.473,8.52-18.993,18.994-18.993h385.937c10.472,0,18.993,8.521,18.993,18.993v245.425H44.038V118.562z M298.013,381.866
			v1.816c0,3.038-2.472,5.51-5.511,5.51h-73.009c-3.038,0-5.51-2.472-5.51-5.51v-1.816H298.013z M494.121,394.41
			c0,9.937-8.084,18.021-18.019,18.021H35.899c-9.937,0-18.021-8.084-18.021-18.021v-12.544h178.225v1.816
			c0,12.897,10.492,23.389,23.389,23.389h73.009c12.897,0,23.39-10.492,23.39-23.389v-1.816h178.23V394.41z"/>
	</g>
</g>
<g>
	<g>
		<path d="M445.912,112.68H66.088c-4.938,0-8.939,4.002-8.939,8.939v220.318c0,4.937,4.001,8.939,8.939,8.939h379.823
			c4.938,0,8.939-4.003,8.939-8.939V121.619C454.851,116.682,450.85,112.68,445.912,112.68z M436.972,332.997H75.028V130.558
			h361.945V332.997z"/>
	</g>
</g>
<g>
	<g>
		<path d="M217.562,160.353H108.507c-4.938,0-8.939,4.002-8.939,8.939c0,4.937,4.002,8.939,8.939,8.939h109.055
			c4.938,0,8.939-4.003,8.939-8.939C226.501,164.355,222.5,160.353,217.562,160.353z"/>
	</g>
</g>
<g>
	<g>
		<path d="M403.491,199.684H108.507c-4.938,0-8.939,4.003-8.939,8.939c0,4.937,4.001,8.939,8.939,8.939h294.984
			c4.938,0,8.939-4.002,8.939-8.939C412.431,203.686,408.43,199.684,403.491,199.684z"/>
	</g>
</g>
<g>
	<g>
		<path d="M403.491,239.015H108.507c-4.938,0-8.939,4.002-8.939,8.939c0,4.937,4.001,8.939,8.939,8.939h294.984
			c4.938,0,8.939-4.002,8.939-8.939C412.431,243.017,408.43,239.015,403.491,239.015z"/>
	</g>
</g>
<g>
	<g>
		<path d="M403.491,278.347H108.507c-4.938,0-8.939,4.002-8.939,8.939c0,4.937,4.001,8.939,8.939,8.939h294.984
			c4.938,0,8.939-4.002,8.939-8.939C412.431,282.349,408.43,278.347,403.491,278.347z"/>
	</g>
</g>
<g>
</g>
<g>
</g>
<g>
</g>
<g>
</g>
<g>
</g>
<g>
</g>
<g>
</g>
<g>
</g>
<g>
</g>
<g>
</g>
<g>
</g>
<g>
</g>
<g>
</g>
<g>
</g>
<g>
</g>
</svg>
